<svg width="50" height="50" viewBox="0 0 50 50" fill="none" xmlns="http://www.w3.org/2000/svg">
<path d="M14.9893 8.33143V11.6624H46.6332V18.2561L42.938 29.9826H13.9413L9.77758 0H0V3.33095H6.87715L11.0408 33.3135H45.3808L49.9642 18.7684V8.33143H14.9893Z" fill="black"/>
<path d="M16.7572 36.6762C14.9909 36.6782 13.2976 37.3807 12.0487 38.6297C10.7998 39.8786 10.0973 41.5719 10.0953 43.3381C10.0953 45.1049 10.7972 46.7994 12.0465 48.0488C13.2958 49.2981 14.9903 50 16.7572 50C18.524 50 20.2185 49.2981 21.4678 48.0488C22.7172 46.7994 23.4191 45.1049 23.4191 43.3381C23.4171 41.5719 22.7146 39.8785 21.4656 38.6296C20.2167 37.3807 18.5234 36.6782 16.7572 36.6762ZM16.7572 46.669C16.0984 46.669 15.4544 46.4737 14.9066 46.1077C14.3588 45.7417 13.9319 45.2215 13.6798 44.6128C13.4277 44.0041 13.3617 43.3344 13.4902 42.6883C13.6188 42.0421 13.936 41.4486 14.4018 40.9828C14.8677 40.5169 15.4612 40.1997 16.1073 40.0712C16.7535 39.9426 17.4232 40.0086 18.0319 40.2607C18.6405 40.5128 19.1607 40.9398 19.5267 41.4875C19.8928 42.0353 20.0881 42.6793 20.0881 43.3381C20.0871 44.2212 19.7358 45.0678 19.1113 45.6923C18.4869 46.3167 17.6403 46.668 16.7572 46.669Z" fill="black"/>
<path d="M40.0738 36.6762C38.3076 36.6782 36.6143 37.3807 35.3653 38.6297C34.1164 39.8786 33.4139 41.5719 33.4119 43.3381C33.4119 45.1049 34.1138 46.7994 35.3631 48.0488C36.6125 49.2981 38.3069 50 40.0738 50C41.8406 50 43.5351 49.2981 44.7845 48.0488C46.0338 46.7994 46.7357 45.1049 46.7357 43.3381C46.7337 41.5719 46.0312 39.8785 44.7823 38.6296C43.5333 37.3807 41.84 36.6782 40.0738 36.6762ZM40.0738 46.669C39.415 46.669 38.771 46.4737 38.2232 46.1077C37.6754 45.7417 37.2485 45.2215 36.9964 44.6128C36.7443 44.0041 36.6783 43.3344 36.8068 42.6883C36.9354 42.0421 37.2526 41.4486 37.7185 40.9828C38.1843 40.5169 38.7778 40.1997 39.424 40.0712C40.0701 39.9426 40.7398 40.0086 41.3485 40.2607C41.9571 40.5128 42.4774 40.9398 42.8434 41.4875C43.2094 42.0353 43.4047 42.6793 43.4047 43.3381C43.4037 44.2212 43.0524 45.0678 42.428 45.6923C41.8035 46.3167 40.9569 46.668 40.0738 46.669Z" fill="black"/>
</svg>
