<?xml version="1.0" encoding="UTF-8"?>
<svg version="1.1" xmlns="http://www.w3.org/2000/svg" width="488" height="647">
<path d="M0 0 C161.04 0 322.08 0 488 0 C488 213.51 488 427.02 488 647 C326.96 647 165.92 647 0 647 C0 433.49 0 219.98 0 0 Z " fill="#1D1C1C" transform="translate(0,0)"/>
<path d="M0 0 C161.04 0 322.08 0 488 0 C488 213.51 488 427.02 488 647 C326.96 647 165.92 647 0 647 C0 433.49 0 219.98 0 0 Z M200.3671875 75.375 C194.94529491 81.81930663 195.36702801 88.23153408 195.1796875 96.36523438 C194.75606158 104.10649368 192.63061216 107.78057418 187 113 C185.74123047 114.37865234 185.74123047 114.37865234 184.45703125 115.78515625 C173.39489879 125.75690363 155.35662092 129.91823412 141.5 134.5 C119.66467466 141.72506918 96.45236319 149.7568388 84.46875 171.046875 C77.83108113 184.39282623 74.78945955 198.44144678 72 213 C71.82758789 213.88977539 71.65517578 214.77955078 71.47753906 215.69628906 C66.09963665 243.86475648 62.65838048 272.46217197 60 301 C59.87915039 302.2890625 59.75830078 303.578125 59.63378906 304.90625 C58.92556855 312.48586619 58.23942292 320.06731613 57.56706238 327.65019226 C57.19059324 331.88893665 56.80505132 336.12672705 56.41186523 340.36395264 C53.59119287 370.77705728 51.82600164 401.0750998 51.34130859 431.61743164 C51.30981658 433.58219797 51.27805041 435.54695992 51.24609375 437.51171875 C51.23104136 438.44590511 51.21598898 439.38009148 51.20048046 440.34258652 C51.08405234 446.88248047 50.88547078 453.41499066 50.63656807 459.95108223 C49.94250301 478.50114767 49.78363311 497.04013729 49.7265625 515.6015625 C49.72391372 516.40774253 49.72126494 517.21392257 49.7185359 518.0445323 C49.69353603 525.67281319 49.67162609 533.30109522 49.65880775 540.92940712 C49.64243826 550.59017985 49.60874134 560.25055998 49.55240691 569.91118491 C49.51378467 576.7703942 49.49418796 583.62949762 49.48888719 590.4888128 C49.48524128 594.56427399 49.47328816 598.63930735 49.44078445 602.7146492 C49.4108173 606.52201678 49.40435036 610.32869393 49.41616821 614.13615417 C49.41638947 615.53100027 49.40804122 616.92587787 49.39051437 618.32061386 C49.36790825 620.22236683 49.37907591 622.12443221 49.39199829 624.02627563 C49.38868814 625.08977549 49.385378 626.15327534 49.38196754 627.24900246 C50.21584119 630.96075633 51.86841126 631.97821863 55 634 C59.09897826 635.46654467 63.4372186 635.19931034 67.74609375 635.23828125 C68.59422134 635.246353 69.44234894 635.25442474 70.31617737 635.26274109 C72.10733006 635.27654794 73.89850869 635.28728524 75.68969727 635.29516602 C77.51985388 635.30671121 79.34997616 635.32720295 81.17993164 635.35668945 C83.82721793 635.39933766 86.47350673 635.41552835 89.12109375 635.42578125 C89.9358165 635.44328934 90.75053925 635.46079742 91.58995056 635.47883606 C95.52888413 635.46382198 97.549117 635.27133724 100.99926758 633.19506836 C103.77802188 630.14640699 103.97505039 627.2035704 104.25 623.25 C104.320979 622.50427734 104.39195801 621.75855469 104.46508789 620.99023438 C104.80851451 617.21134778 105.03996582 613.4299955 105.23046875 609.640625 C105.28509277 608.59600098 105.28509277 608.59600098 105.34082031 607.53027344 C105.43203674 605.6147285 105.49618021 603.69794961 105.55859375 601.78125 C105.91787848 598.70348345 106.40603117 596.63704351 107.4453125 593.796875 C109.42812858 588.21394738 109.89013255 582.6212905 110.4375 576.75 C110.68302189 574.35383911 110.93183795 571.95801394 111.18359375 569.5625 C111.31362793 568.325 111.44366211 567.0875 111.57763672 565.8125 C113.23367819 550.86409329 115.1850119 535.89663826 118.3515625 521.1875 C119.26401312 516.70220057 119.84805393 512.1866434 120.4609375 507.65234375 C121.43324184 501.06462954 122.72691344 494.53517769 124 488 C125.09278027 497.56182739 125.53325614 507.14185479 126 516.75 C126.04357635 517.62872772 126.08715271 518.50745544 126.13204956 519.41281128 C126.77287047 532.35316943 127.28258188 545.29136571 127.67358398 558.24169922 C127.92882634 566.51247744 128.31995594 574.75265714 129 583 C143.18786953 589.48527015 158.2849614 589.50975846 173.609375 589.73046875 C175.68745448 589.77009292 177.76551339 589.81080857 179.84355164 589.85253906 C185.34580844 589.95930465 190.84820939 590.0487916 196.35084152 590.13372421 C200.91000142 590.2058516 205.46897878 590.28726535 210.02798748 590.36830616 C259.74817107 591.24763605 309.51876183 591.82927802 359.21484375 589.58984375 C359.96705704 589.56112686 360.71927032 589.53240997 361.49427795 589.50282288 C370.80019683 589.16861094 370.80019683 589.16861094 379.04638672 585.43969727 C380.53361412 581.63481673 380.34698382 578.01085382 380.2578125 573.96484375 C380.25119598 573.08977676 380.24457947 572.21470978 380.23776245 571.31312561 C380.21438084 568.52089079 380.17067119 565.72945169 380.125 562.9375 C380.08992806 560.14207398 380.05913674 557.34669261 380.03366089 554.55116272 C380.01669593 552.81267538 379.99356371 551.07423505 379.96365356 549.33592224 C379.92179962 545.95756606 379.92335769 543.22992693 381 540 C382.44425516 528.85535386 382.54973337 517.46854054 383.0625 506.25 C383.15409659 504.28124067 383.24589187 502.31249058 383.33789062 500.34375 C383.56088439 495.56260336 383.78118968 490.78133984 384 486 C384.15819214 486.97271851 384.15819214 486.97271851 384.31958008 487.96508789 C386.67726111 502.68142481 386.67726111 502.68142481 389.5 517.3125 C392.85734245 533.58831233 394.83849487 550.19501359 396.9609375 566.67016602 C397.48811147 570.67064765 398.11624825 574.57083533 399.01953125 578.50390625 C400.60395125 586.17965738 400.6977249 594.06611087 401.0625 601.875 C401.14054943 603.46227548 401.21932104 605.04951562 401.29882812 606.63671875 C401.33753021 607.41227112 401.3762323 608.18782349 401.41610718 608.98687744 C401.5329046 611.2608493 401.65889149 613.53418161 401.78564453 615.80761719 C401.93114212 618.44366466 402.01997521 621.05854649 402.06982422 623.70019531 C402.10736816 624.77108398 402.14491211 625.84197266 402.18359375 626.9453125 C402.1983374 627.86070801 402.21308105 628.77610352 402.22827148 629.71923828 C402.83811442 632.24512132 402.83811442 632.24512132 405.46484375 633.79101562 C409.89991266 635.30776019 413.72589903 635.43167346 418.37890625 635.3984375 C419.26859604 635.40130768 420.15828583 635.40417786 421.07493591 635.40713501 C422.9483199 635.40916914 424.82172545 635.40368497 426.69506836 635.39111328 C429.55696163 635.37503112 432.41744684 635.39099372 435.27929688 635.41015625 C437.10416977 635.40817407 438.92904179 635.40433093 440.75390625 635.3984375 C441.60610245 635.40451019 442.45829865 635.41058289 443.33631897 635.4168396 C446.83279676 635.37556624 449.66917069 635.10558895 453.01538086 634.03759766 C456.13448906 630.83522626 455.87020488 627.2480116 456 623 C456.07658844 621.62671036 456.07658844 621.62671036 456.15472412 620.22567749 C457.68788407 590.67531339 457.15283113 561.00091624 457.12856936 531.41969192 C457.12425355 525.54500592 457.12731327 519.6703416 457.1321975 513.79565698 C457.13680219 508.01537471 457.13734422 502.23510147 457.13475883 496.45481795 C457.13323666 493.04944309 457.13330657 489.64409362 457.13629532 486.23871803 C457.14597065 472.13118984 457.0113336 458.04104143 456.55029297 443.94140625 C456.51104769 442.73817624 456.47180241 441.53494623 456.43136787 440.29525471 C455.99773345 428.22830673 455.04248835 416.21469188 454 404.1875 C453.64268445 399.97291794 453.28960954 395.75798858 452.9375 391.54296875 C452.85291031 390.5405867 452.76832062 389.53820465 452.6811676 388.50544739 C452.19056609 382.60819209 451.78166042 376.71369662 451.46484375 370.8046875 C451.08819153 363.81259353 450.40133686 356.88839512 449.5625 349.9375 C448.52541332 341.02938504 447.63471793 332.12862835 446.9375 323.1875 C446.36845584 315.93291647 445.61948742 308.77914035 444.49609375 301.5859375 C443.86818368 297.04718594 443.46730972 292.50073416 443.0625 287.9375 C442.33833062 279.84753526 441.31223257 271.84400162 440.10571289 263.81298828 C439.22033285 257.82368559 438.55198462 251.84106084 438 245.8125 C437.34051232 238.66572147 436.35860129 231.64497225 435.10327148 224.57958984 C434.21902251 219.5430944 433.58826892 214.52266212 433.0625 209.4375 C430.93063309 189.86019606 425.61492285 166.41976319 409.84375 153.19140625 C392.61712251 141.21890015 372.37728747 135.24236763 352.32421875 129.70703125 C325.38247871 122.15225541 325.38247871 122.15225541 319.04296875 114.69921875 C317.75 112.375 317.75 112.375 316.921875 110.2734375 C316.04810326 107.82176937 316.04810326 107.82176937 314.0078125 105.44140625 C310.76669977 99.8861138 310.51810166 93.80869212 309.75390625 87.49804688 C308.78371449 80.79847945 307.33893273 76.36971351 302 72 C298.89794974 69.99604683 298.89794974 69.99604683 295.5 68.6875 C294.4171875 68.21699219 293.334375 67.74648437 292.21875 67.26171875 C280.51530291 63.33243999 267.90075539 63.68322007 255.71362305 63.73925781 C252.93841784 63.74999645 250.16385779 63.73929383 247.38867188 63.7265625 C231.25263042 63.71250985 213.01905797 63.83754299 200.3671875 75.375 Z " fill="#FEFEFE" transform="translate(0,0)"/>
<path d="M0 0 C1.32732147 -0.0049926 1.32732147 -0.0049926 2.68145752 -0.01008606 C4.54023729 -0.01511051 6.39902594 -0.01749579 8.2578125 -0.01733398 C11.05744766 -0.01951514 13.85668451 -0.0377047 16.65625 -0.05664062 C49.03416653 -0.15932053 49.03416653 -0.15932053 58.2734375 7.85546875 C61.43785609 11.50558879 62.71026787 14.51468348 62.890625 19.35546875 C62.51204534 24.52939081 61.36037928 27.21755022 57.58203125 30.84375 C51.49569066 36.05901799 44.87045488 38.66371804 37.328125 41.16796875 C36.19375 41.55984375 35.059375 41.95171875 33.890625 42.35546875 C29.20547778 43.4240111 24.48788612 44.02174525 19.7265625 44.65625 C16.91509071 45.07958656 14.25649206 45.61830414 11.515625 46.35546875 C10.46375 46.62359375 9.411875 46.89171875 8.328125 47.16796875 C7.998125 46.83796875 7.668125 46.50796875 7.328125 46.16796875 C5.290139 45.79320233 3.24733092 45.44467215 1.203125 45.10546875 C-5.99254882 43.78172358 -12.82567792 41.6168803 -19.734375 39.23046875 C-20.72131348 38.8945874 -21.70825195 38.55870605 -22.72509766 38.21264648 C-35.85343413 33.57363851 -35.85343413 33.57363851 -39.046875 27.85546875 C-39.36398438 27.32308594 -39.68109375 26.79070312 -40.0078125 26.2421875 C-41.02519593 23.06436044 -40.97955265 20.48444763 -40.671875 17.16796875 C-36.63393991 9.56115163 -30.87747396 5.02497876 -22.95703125 1.97265625 C-15.44842006 0.13344828 -7.69859272 0.01040758 0 0 Z " fill="#141313" transform="translate(241.671875,63.83203125)"/>
<path d="M0 0 C1.32 0 2.64 0 4 0 C4.33 0.66 4.66 1.32 5 2 C7.9737344 3.09036928 8.88407501 3.03864166 12 2 C12 2.66 12 3.32 12 4 C12.99 4 13.98 4 15 4 C15 4.66 15 5.32 15 6 C15.66 6 16.32 6 17 6 C17.495 7.485 17.495 7.485 18 9 C18.639375 9.309375 19.27875 9.61875 19.9375 9.9375 C22.49831999 11.2567103 23.02880681 12.32921873 24 15 C24 15.99 24 16.98 24 18 C23.34 18 22.68 18 22 18 C22.495 19.98 22.495 19.98 23 22 C24.32 22.33 25.64 22.66 27 23 C26.67 24.98 26.34 26.96 26 29 C22.125 28.125 22.125 28.125 21 27 C20.60224617 25.40608137 20.25604817 23.79911776 19.9375 22.1875 C19.76089844 21.31480469 19.58429688 20.44210938 19.40234375 19.54296875 C19 17 19 17 19 13 C18.01 13 17.02 13 16 13 C16 12.34 16 11.68 16 11 C15.01 11 14.02 11 13 11 C13.54140625 11.64001953 13.54140625 11.64001953 14.09375 12.29296875 C18.69007715 18.48524283 18.9469218 24.46449599 18 32 C16.97265625 34.390625 16.97265625 34.390625 16 36 C15.505 34.02 15.505 34.02 15 32 C14.34 32.66 13.68 33.32 13 34 C13 29.05 13 24.1 13 19 C12.34 19 11.68 19 11 19 C9 14.25 9 14.25 9 12 C6.525 11.505 6.525 11.505 4 11 C4 11.66 4 12.32 4 13 C4.66 13 5.32 13 6 13 C6.66 14.65 7.32 16.3 8 18 C5 17 5 17 3 14 C3 12.68 3 11.36 3 10 C2.67 10.99 2.34 11.98 2 13 C1.01 13.33 0.02 13.66 -1 14 C-1.33 16.31 -1.66 18.62 -2 21 C-2.66 20.67 -3.32 20.34 -4 20 C-4 19.34 -4 18.68 -4 18 C-5.32 17.67 -6.64 17.34 -8 17 C-7.360625 16.731875 -6.72125 16.46375 -6.0625 16.1875 C-3.66868314 15.11332248 -3.66868314 15.11332248 -3 12 C-5.44480079 12.18828772 -5.44480079 12.18828772 -8 13 C-9.36020151 14.96758273 -9.36020151 14.96758273 -10 17 C-10.66 16.01 -11.32 15.02 -12 14 C-11.835 14.969375 -11.67 15.93875 -11.5 16.9375 C-11 20 -11 20 -11 21 C-8.96179476 24.01026881 -8.96179476 24.01026881 -6 26 C-7.98 26.99 -7.98 26.99 -10 28 C-10 29.32 -10 30.64 -10 32 C-7.18490007 34.2773501 -7.18490007 34.2773501 -4 34 C-4.33 32.68 -4.66 31.36 -5 30 C-4.38125 29.87625 -3.7625 29.7525 -3.125 29.625 C-0.80879168 29.12802644 -0.80879168 29.12802644 1 27 C1 26.34 1 25.68 1 25 C-0.65 25.33 -2.3 25.66 -4 26 C-3.34 24.68 -2.68 23.36 -2 22 C-1.01 22 -0.02 22 1 22 C1.33 21.01 1.66 20.02 2 19 C2.12375 19.53625 2.2475 20.0725 2.375 20.625 C3.12206016 23.4638286 4.05303364 26.22223202 5 29 C4.34 29.66 3.68 30.32 3 31 C2.01 31 1.02 31 0 31 C0 31.66 0 32.32 0 33 C-0.99 33.495 -0.99 33.495 -2 34 C-0.35 34.33 1.3 34.66 3 35 C2.01 35.99 1.02 36.98 0 38 C1.94999129 37.80528889 1.94999129 37.80528889 4 37 C5.28436734 35.0162233 5.28436734 35.0162233 6 33 C6.99 33.33 7.98 33.66 9 34 C9 36 9 36 7.5 37.625 C7.005 38.07875 6.51 38.5325 6 39 C8.97 38.505 8.97 38.505 12 38 C12.33 37.01 12.66 36.02 13 35 C12.67 36.65 12.34 38.3 12 40 C11.34 40 10.68 40 10 40 C10 40.66 10 41.32 10 42 C5.48141403 44.25929298 1.95337583 44.23967948 -3 44 C-4.485 43.505 -4.485 43.505 -6 43 C-6 42.34 -6 41.68 -6 41 C-6.556875 40.95875 -7.11375 40.9175 -7.6875 40.875 C-11.21429991 39.54053517 -13.11980502 37.15246024 -15 34 C-16.23268095 30.71774239 -17.17225071 27.40521253 -18 24 C-18.33 25.65 -18.66 27.3 -19 29 C-20.98 29 -22.96 29 -25 29 C-24.85795259 27.41632253 -24.71119847 25.83306682 -24.5625 24.25 C-24.48128906 23.36828125 -24.40007812 22.4865625 -24.31640625 21.578125 C-24.03761535 19.30649548 -23.61209423 17.20148177 -23 15 C-23.66 15 -24.32 15 -25 15 C-24.67 13.68 -24.34 12.36 -24 11 C-23.34 11.33 -22.68 11.66 -22 12 C-22 11.34 -22 10.68 -22 10 C-21.21625 9.731875 -20.4325 9.46375 -19.625 9.1875 C-16.71885077 8.15185568 -16.71885077 8.15185568 -15 5 C-13.35 5.33 -11.7 5.66 -10 6 C-10 5.01 -10 4.02 -10 3 C-9.04287109 2.80083984 -9.04287109 2.80083984 -8.06640625 2.59765625 C-7.24011719 2.42105469 -6.41382813 2.24445313 -5.5625 2.0625 C-4.32693359 1.80146484 -4.32693359 1.80146484 -3.06640625 1.53515625 C-1.02338796 1.19247006 -1.02338796 1.19247006 0 0 Z " fill="#2A2829" transform="translate(314,224)"/>
<path d="M0 0 C0.66 0.33 1.32 0.66 2 1 C1.4225 1.64066406 0.845 2.28132813 0.25 2.94140625 C-4.38965642 8.22001358 -4.38965642 8.22001358 -6.75 14.6875 C-5.62952191 19.63627823 -4.35530448 23.24794723 -0.24609375 26.3046875 C11.3633353 32.65975957 25.79200822 37.09601246 38.91796875 38.7109375 C41 39 41 39 43 40 C44.99344703 39.63301785 46.97148752 39.1807564 48.9375 38.6875 C53.07731062 37.67635239 57.16460445 36.77713645 61.375 36.125 C72.86545028 34.06175126 86.57222346 30.5135064 93.73828125 20.59375 C95.76132945 16.43491406 95.70436197 12.52274526 95 8 C93.20482277 4.91308423 93.20482277 4.91308423 91 3 C91.33 2.34 91.66 1.68 92 1 C97.19887866 4.43322176 99.37609741 6.87284519 100.8125 13 C101.24719204 15.32640738 101.64089093 17.6607332 102 20 C102.15227051 20.97187256 102.15227051 20.97187256 102.30761719 21.96337891 C102.92953856 25.96859179 103.4876319 29.9794174 104 34 C103.34 33.67 102.68 33.34 102 33 C102 32.34 102 31.68 102 31 C101.34 31 100.68 31 100 31 C100.33 28.69 100.66 26.38 101 24 C97.61542745 24.60438796 95.6999822 25.93001365 93 28 C92.34 28 91.68 28 91 28 C90.505 29.485 90.505 29.485 90 31 C87.9609375 32.09765625 87.9609375 32.09765625 85.375 33.0625 C84.47136719 33.40023437 83.56773437 33.73796875 82.63671875 34.0859375 C78.63721696 35.47243145 74.67350196 36.70713716 70.5 37.4375 C67.81740464 38.04108396 65.52879138 39.11162678 63.03515625 40.24609375 C59.85704865 41.42339657 56.57742212 41.87665757 53.234375 42.375 C50.58641743 43.11568743 49.56075511 43.73665416 48 46 C47.63786432 48.51289675 47.63786432 48.51289675 47.8125 51.1875 C47.83957031 52.08855469 47.86664063 52.98960938 47.89453125 53.91796875 C47.94673828 54.94857422 47.94673828 54.94857422 48 56 C45.6875 57.125 45.6875 57.125 43 58 C42.01 57.34 41.02 56.68 40 56 C40.11487748 54.41590006 40.24234508 52.83271037 40.375 51.25 C40.47941406 49.92742187 40.47941406 49.92742187 40.5859375 48.578125 C40.99850055 46.00933618 41.71160957 44.24158985 43 42 C42.319375 42.04640625 41.63875 42.0928125 40.9375 42.140625 C27.99866721 42.62239005 15.92272585 38.74888233 4 34 C4 33.34 4 32.68 4 32 C2.68 32 1.36 32 0 32 C-0.66 31.01 -1.32 30.02 -2 29 C-4.05003955 27.80767387 -4.05003955 27.80767387 -6 27 C-6 26.34 -6 25.68 -6 25 C-6.99 24.67 -7.98 24.34 -9 24 C-11.68658021 21.51242573 -12.01228745 19.91808368 -12.5625 16.25 C-12.35737971 11.01454874 -9.56699782 7.63126806 -6 4 C-4.05264354 2.43860608 -2.1764963 1.24371217 0 0 Z " fill="#242223" transform="translate(208,70)"/>
<path d="M0 0 C0.99 0 1.98 0 3 0 C3.99 2.31 4.98 4.62 6 7 C6 6.67 6 6.34 6 6 C6 5.01 6 4.02 6 3 C5.34 3 4.68 3 4 3 C4 2.34 4 1.68 4 1 C6.475 1.495 6.475 1.495 9 2 C9.66 4.31 10.32 6.62 11 9 C11.66 9 12.32 9 13 9 C14.32229189 11.64458379 14.09677194 13.67761301 14.0625 16.625 C14.05347656 17.62789062 14.04445313 18.63078125 14.03515625 19.6640625 C14.02355469 20.43492187 14.01195312 21.20578125 14 22 C14.33 19.03 14.66 16.06 15 13 C15.33 13 15.66 13 16 13 C16.02715383 14.74991334 16.04646551 16.49994945 16.0625 18.25 C16.07410156 19.22453125 16.08570313 20.1990625 16.09765625 21.203125 C16.01195577 23.65758678 15.70706066 25.66168914 15 28 C11.66666667 28.66666667 8.33333333 29.33333333 5 30 C5.66 28.68 6.32 27.36 7 26 C7.66 26 8.32 26 9 26 C8.01 25.01 7.02 24.02 6 23 C5.87625 23.598125 5.7525 24.19625 5.625 24.8125 C5 27 5 27 3 30 C1.68 29.34 0.36 28.68 -1 28 C-0.01 27.34 0.98 26.68 2 26 C0.35 25.67 -1.3 25.34 -3 25 C-2.67 24.34 -2.34 23.68 -2 23 C-1.34 23 -0.68 23 0 23 C0 22.34 0 21.68 0 21 C1.32 20.34 2.64 19.68 4 19 C3.67 18.071875 3.34 17.14375 3 16.1875 C2 13 2 13 2 10 C1.67 10.66 1.34 11.32 1 12 C-1.0625 13.125 -1.0625 13.125 -3 14 C-2.34 14 -1.68 14 -1 14 C-0.01 14.33 0.98 14.66 2 15 C2.33 15.99 2.66 16.98 3 18 C-0.08809695 19.76462683 -1.23312136 20 -5 20 C-4.67 21.32 -4.34 22.64 -4 24 C-5.32 24.33 -6.64 24.66 -8 25 C-8 24.34 -8 23.68 -8 23 C-8.99 22.67 -9.98 22.34 -11 22 C-10.42655063 19.13275314 -10.1385485 18.1385485 -8 16 C-8.66 15.67 -9.32 15.34 -10 15 C-10.33 16.65 -10.66 18.3 -11 20 C-11.33 20 -11.66 20 -12 20 C-11.98839844 19.24074219 -11.97679687 18.48148438 -11.96484375 17.69921875 C-11.95582031 16.70535156 -11.94679688 15.71148437 -11.9375 14.6875 C-11.92009766 13.20830078 -11.92009766 13.20830078 -11.90234375 11.69921875 C-11.87670138 8.90036151 -11.87670138 8.90036151 -13 6 C-12.67 5.01 -12.34 4.02 -12 3 C-11.01 4.485 -11.01 4.485 -10 6 C-9.34 4.68 -8.68 3.36 -8 2 C-6.35 2 -4.7 2 -3 2 C-3.3125 3.9375 -3.3125 3.9375 -4 6 C-4.99 6.33 -5.98 6.66 -7 7 C-6.01 7.33 -5.02 7.66 -4 8 C-3.67 8.66 -3.34 9.32 -3 10 C-2.34 7.69 -1.68 5.38 -1 3 C-0.01 3 0.98 3 2 3 C2 2.34 2 1.68 2 1 C1.34 0.67 0.68 0.34 0 0 Z " fill="#3A3839" transform="translate(314,234)"/>
<path d="M0 0 C0.04898438 1.08539063 0.09796875 2.17078125 0.1484375 3.2890625 C0.22351986 4.73439784 0.29906528 6.17970919 0.375 7.625 C0.4059375 8.33785156 0.436875 9.05070313 0.46875 9.78515625 C0.50742188 10.48769531 0.54609375 11.19023437 0.5859375 11.9140625 C0.6173584 12.5529541 0.6487793 13.1918457 0.68115234 13.85009766 C0.93508536 16.11625686 0.93508536 16.11625686 2.00375366 18.561203 C3.24957044 22.8614557 3.28015745 26.7194123 3.25878906 31.1706543 C3.2622937 32.07379364 3.26579834 32.97693298 3.26940918 33.90744019 C3.27818119 36.87977886 3.27239483 39.85187784 3.265625 42.82421875 C3.2669726 44.89353989 3.26891392 46.96286073 3.27142334 49.03218079 C3.27436816 53.36206079 3.27009624 57.69185813 3.26074219 62.02172852 C3.24932665 67.57701763 3.2559245 73.13211394 3.26788712 78.68739605 C3.27510477 82.95696981 3.27281859 87.22649764 3.26763153 91.49607277 C3.26629588 93.54504227 3.26793979 95.59401592 3.27259064 97.64298058 C3.27765661 100.50127645 3.26994555 103.35925698 3.25878906 106.2175293 C3.26283752 107.06693588 3.26688599 107.91634247 3.27105713 108.79148865 C3.24266644 112.70788267 3.22187565 114.66718653 1 118 C0.08903415 93.3263931 -0.12508096 68.6890571 0 44 C-1.485 44.495 -1.485 44.495 -3 45 C-4.1443556 40.41053777 -4.17813626 35.96827342 -4.203125 31.26953125 C-4.21167511 30.02208382 -4.21167511 30.02208382 -4.22039795 28.74943542 C-4.22981277 26.99874126 -4.23636788 25.24802966 -4.24023438 23.49731445 C-4.25000526 20.81105331 -4.28108668 18.12553706 -4.3125 15.43945312 C-4.31902437 13.7369837 -4.32427706 12.03450883 -4.328125 10.33203125 C-4.3404718 9.52683548 -4.3528186 8.72163971 -4.36553955 7.89204407 C-4.35644531 5.63598633 -4.35644531 5.63598633 -4 2 C-1 0 -1 0 0 0 Z " fill="#353433" transform="translate(251,155)"/>
<path d="M0 0 C0.66 0.33 1.32 0.66 2 1 C1.4225 1.64066406 0.845 2.28132813 0.25 2.94140625 C-4.38965642 8.22001358 -4.38965642 8.22001358 -6.75 14.6875 C-5.62952191 19.63627823 -4.35530448 23.24794723 -0.24609375 26.3046875 C11.93400862 32.97214962 27.19117924 37.59910514 41 39 C41 39.99 41 40.98 41 42 C28.32223777 43.09711404 15.63792995 38.63544668 4 34 C4 33.34 4 32.68 4 32 C2.68 32 1.36 32 0 32 C-0.66 31.01 -1.32 30.02 -2 29 C-4.05003955 27.80767387 -4.05003955 27.80767387 -6 27 C-6 26.34 -6 25.68 -6 25 C-6.99 24.67 -7.98 24.34 -9 24 C-11.68658021 21.51242573 -12.01228745 19.91808368 -12.5625 16.25 C-12.35737971 11.01454874 -9.56699782 7.63126806 -6 4 C-4.05264354 2.43860608 -2.1764963 1.24371217 0 0 Z " fill="#232222" transform="translate(208,70)"/>
<path d="M0 0 C0.33 0.66 0.66 1.32 1 2 C3.9737344 3.09036928 4.88407501 3.03864166 8 2 C8 2.66 8 3.32 8 4 C8.99 4 9.98 4 11 4 C11 4.66 11 5.32 11 6 C11.66 6 12.32 6 13 6 C13.33 6.99 13.66 7.98 14 9 C14.639375 9.309375 15.27875 9.61875 15.9375 9.9375 C18.49831999 11.2567103 19.02880681 12.32921873 20 15 C20 15.99 20 16.98 20 18 C19.34 18 18.68 18 18 18 C18.33 19.32 18.66 20.64 19 22 C20.32 22.33 21.64 22.66 23 23 C22.67 24.98 22.34 26.96 22 29 C18.125 28.125 18.125 28.125 17 27 C16.60224617 25.40608137 16.25604817 23.79911776 15.9375 22.1875 C15.76089844 21.31480469 15.58429688 20.44210938 15.40234375 19.54296875 C15 17 15 17 15 13 C14.01 13 13.02 13 12 13 C12 12.34 12 11.68 12 11 C11.01 11 10.02 11 9 11 C9.33 11.99 9.66 12.98 10 14 C8 14 8 14 6.5 12.625 C6.005 12.08875 5.51 11.5525 5 11 C4.34 10.34 3.68 9.68 3 9 C3 8.67 3 8.34 3 8 C1.7934375 7.814375 1.7934375 7.814375 0.5625 7.625 C-0.283125 7.41875 -1.12875 7.2125 -2 7 C-2.33 6.34 -2.66 5.68 -3 5 C-3.33 5.66 -3.66 6.32 -4 7 C-5.98 7 -7.96 7 -10 7 C-10.33 5.35 -10.66 3.7 -11 2 C-7.12315913 0.80712589 -4.08378077 0 0 0 Z " fill="#3B3B3B" transform="translate(318,224)"/>
<path d="M0 0 C1.051875 0.1546875 1.051875 0.1546875 2.125 0.3125 C-0.13789593 5.85064005 -4.66623655 7.82635401 -9.875 10.3125 C-20.22631055 14.28348842 -31.05363314 17.19990508 -42.125 17.96875 C-42.99125 18.13890625 -42.99125 18.13890625 -43.875 18.3125 C-44.205 18.9725 -44.535 19.6325 -44.875 20.3125 C-44.215 20.3125 -43.555 20.3125 -42.875 20.3125 C-42.875 21.3025 -42.875 22.2925 -42.875 23.3125 C-43.8340625 23.6528125 -43.8340625 23.6528125 -44.8125 24 C-47.14693661 25.16500896 -47.14693661 25.16500896 -47.625 27.9375 C-47.7075 28.72125 -47.79 29.505 -47.875 30.3125 C-50.3849972 26.54750419 -50.48976744 24.76956394 -49.875 20.3125 C-46.5299588 16.46570262 -45.00159458 15.49132454 -39.9375 14.6875 C-39.26203125 14.64367187 -38.5865625 14.59984375 -37.890625 14.5546875 C-34.62811243 14.16268018 -31.84623156 12.65796335 -28.875 11.3125 C-27.20900649 10.97581838 -25.5422094 10.6431081 -23.875 10.3125 C-21.37637143 9.59938976 -18.90968326 8.85616202 -16.4375 8.0625 C-15.79490234 7.87042969 -15.15230469 7.67835937 -14.49023438 7.48046875 C-10.97179783 6.34456741 -8.38855401 5.09705841 -5.58203125 2.66015625 C-2.875 0.3125 -2.875 0.3125 0 0 Z " fill="#121011" transform="translate(304.875,95.6875)"/>
<path d="M0 0 C1.32732147 -0.0049926 1.32732147 -0.0049926 2.68145752 -0.01008606 C4.54023729 -0.01511051 6.39902594 -0.01749579 8.2578125 -0.01733398 C11.05744766 -0.01951514 13.85668451 -0.0377047 16.65625 -0.05664062 C30.46575434 -0.10104861 43.60804115 0.13032526 56.328125 6.16796875 C56.328125 6.49796875 56.328125 6.82796875 56.328125 7.16796875 C51.4652506 6.78202634 47.27466556 6.26614841 42.703125 4.54296875 C38.51510447 3.03846397 35.74025371 3.39391108 31.328125 4.16796875 C29.84133665 4.05943648 28.35765393 3.90358735 26.87890625 3.71484375 C20.89543802 3.05796834 14.96738061 3.0206662 8.953125 3.04296875 C7.35404297 3.03716797 7.35404297 3.03716797 5.72265625 3.03125 C4.18544922 3.03318359 4.18544922 3.03318359 2.6171875 3.03515625 C1.69631348 3.03628418 0.77543945 3.03741211 -0.17333984 3.03857422 C-2.49561449 3.15884054 -4.43503331 3.57772759 -6.671875 4.16796875 C-8.94272136 4.18733041 -11.21415083 4.16203988 -13.484375 4.10546875 C-18.67928764 4.05671566 -22.82839739 4.32283442 -27.671875 6.16796875 C-27.671875 5.50796875 -27.671875 4.84796875 -27.671875 4.16796875 C-18.61757976 0.31150966 -9.74358415 0.01317216 0 0 Z " fill="#272727" transform="translate(241.671875,63.83203125)"/>
<path d="M0 0 C0.12375 0.53625 0.2475 1.0725 0.375 1.625 C1.12206016 4.4638286 2.05303364 7.22223202 3 10 C2.34 10.66 1.68 11.32 1 12 C0.01 12 -0.98 12 -2 12 C-2 12.66 -2 13.32 -2 14 C-2.99 14.495 -2.99 14.495 -4 15 C-2.35 15.33 -0.7 15.66 1 16 C0.01 16.99 -0.98 17.98 -2 19 C-0.05000871 18.80528889 -0.05000871 18.80528889 2 18 C3.28436734 16.0162233 3.28436734 16.0162233 4 14 C4.99 14.33 5.98 14.66 7 15 C7 17 7 17 5.5 18.625 C5.005 19.07875 4.51 19.5325 4 20 C5.98 19.67 7.96 19.34 10 19 C10.33 18.01 10.66 17.02 11 16 C10.67 17.65 10.34 19.3 10 21 C9.34 21 8.68 21 8 21 C8 21.66 8 22.32 8 23 C3.50343896 25.24828052 -0.07872966 25.16682272 -5 25 C-4.67 24.34 -4.34 23.68 -4 23 C-5.98 22.01 -7.96 21.02 -10 20 C-9.34 18.68 -8.68 17.36 -8 16 C-7.34 16 -6.68 16 -6 16 C-6.33 14.35 -6.66 12.7 -7 11 C-6.38125 10.87625 -5.7625 10.7525 -5.125 10.625 C-2.80879168 10.12802644 -2.80879168 10.12802644 -1 8 C-1 7.34 -1 6.68 -1 6 C-2.65 6.33 -4.3 6.66 -6 7 C-5.34 5.68 -4.68 4.36 -4 3 C-3.01 3 -2.02 3 -1 3 C-0.67 2.01 -0.34 1.02 0 0 Z " fill="#444243" transform="translate(316,243)"/>
<path d="M0 0 C0.33 0.66 0.66 1.32 1 2 C1.99 2.33 2.98 2.66 4 3 C3.67 4.98 3.34 6.96 3 9 C4.32 8.67 5.64 8.34 7 8 C7 9.32 7 10.64 7 12 C9.29633824 8.55549263 9.54016485 6.06187717 10 2 C10.33 2 10.66 2 11 2 C11 5.63 11 9.26 11 13 C11.33 10.03 11.66 7.06 12 4 C12.33 4 12.66 4 13 4 C13.02715383 5.74991334 13.04646551 7.49994945 13.0625 9.25 C13.07410156 10.22453125 13.08570313 11.1990625 13.09765625 12.203125 C13.01195577 14.65758678 12.70706066 16.66168914 12 19 C8.66666667 19.66666667 5.33333333 20.33333333 2 21 C2.66 19.68 3.32 18.36 4 17 C4.66 17 5.32 17 6 17 C5.01 16.01 4.02 15.02 3 14 C2.87625 14.598125 2.7525 15.19625 2.625 15.8125 C2 18 2 18 0 21 C-1.32 20.34 -2.64 19.68 -4 19 C-3.01 18.34 -2.02 17.68 -1 17 C-2.65 16.67 -4.3 16.34 -6 16 C-5.67 15.34 -5.34 14.68 -5 14 C-4.34 14 -3.68 14 -3 14 C-3 13.34 -3 12.68 -3 12 C-1.68 11.34 -0.36 10.68 1 10 C0.4740625 8.63875 0.4740625 8.63875 -0.0625 7.25 C-0.96468779 4.12241564 -1.13381507 2.94791919 0 0 Z " fill="#302E2F" transform="translate(317,243)"/>
<path d="M0 0 C3.17110316 2.81875836 5.11840864 5.00289231 6.74609375 8.93359375 C8.83564741 13.21145863 11.52548634 15.13952523 15.8125 17.0625 C16.49030518 17.38557129 17.16811035 17.70864258 17.86645508 18.04150391 C26.74659578 22.07676891 36.19701452 24.65490385 45.57495117 27.25732422 C48.1166148 28.0357135 50.54607999 28.980793 53 30 C49.73086376 31.03115279 47.13958652 30.9638984 43.75 30.5625 C42.85796875 30.46066406 41.9659375 30.35882813 41.046875 30.25390625 C40.37140625 30.17011719 39.6959375 30.08632812 39 30 C39 29.01 39 28.02 39 27 C38.11441406 27.29583984 38.11441406 27.29583984 37.2109375 27.59765625 C34.08446626 28.16660773 32.25905027 26.77964788 29.5546875 25.3203125 C26.3507461 23.66445288 23.06336244 22.23134722 19.75 20.8125 C18.56921875 20.30332031 17.3884375 19.79414062 16.171875 19.26953125 C13.18893586 17.99164278 13.18893586 17.99164278 10.71875 17.43359375 C7.94459061 16.73374899 6.72213781 15.21417719 5 13 C4.75 10.25 4.75 10.25 5 8 C4.34 8 3.68 8 3 8 C3 8.99 3 9.98 3 11 C2.01 10.67 1.02 10.34 0 10 C0 6.7 0 3.4 0 0 Z " fill="#434242" transform="translate(312,104)"/>
<path d="M0 0 C4.72463088 0.46319911 8.17057052 1.09891706 12 4 C12 4.66 12 5.32 12 6 C12.61875 6.268125 13.2375 6.53625 13.875 6.8125 C16 8 16 8 18 11 C18.265625 13.99609375 18.265625 13.99609375 18.25 17.4375 C18.25515625 18.57058594 18.2603125 19.70367187 18.265625 20.87109375 C18.01398568 23.83525691 17.54596941 25.50313671 16 28 C15.67 26.68 15.34 25.36 15 24 C14.34 24.66 13.68 25.32 13 26 C13 21.05 13 16.1 13 11 C12.34 11 11.68 11 11 11 C9 6.25 9 6.25 9 4 C7.35 3.67 5.7 3.34 4 3 C4 3.66 4 4.32 4 5 C4.66 5 5.32 5 6 5 C6.66 6.65 7.32 8.3 8 10 C5 9 5 9 3 6 C2.875 3.3125 2.875 3.3125 3 1 C2.01 0.67 1.02 0.34 0 0 Z " fill="#797778" transform="translate(314,232)"/>
<path d="M0 0 C1.65 0.33 3.3 0.66 5 1 C5.33 1.99 5.66 2.98 6 4 C6.9590625 4.4640625 6.9590625 4.4640625 7.9375 4.9375 C10.49831999 6.2567103 11.02880681 7.32921873 12 10 C12 10.99 12 11.98 12 13 C11.34 13 10.68 13 10 13 C10.33 14.32 10.66 15.64 11 17 C12.32 17.33 13.64 17.66 15 18 C14.67 19.98 14.34 21.96 14 24 C10.125 23.125 10.125 23.125 9 22 C8.60224617 20.40608137 8.25604817 18.79911776 7.9375 17.1875 C7.76089844 16.31480469 7.58429688 15.44210938 7.40234375 14.54296875 C7 12 7 12 7 8 C6.01 8 5.02 8 4 8 C4 7.34 4 6.68 4 6 C1.525 5.01 1.525 5.01 -1 4 C-0.67 2.68 -0.34 1.36 0 0 Z " fill="#B7B7B7" transform="translate(326,229)"/>
<path d="M0 0 C3.4375 1.3125 3.4375 1.3125 7 3 C7.33 3.99 7.66 4.98 8 6 C9.32 6 10.64 6 12 6 C12 6.66 12 7.32 12 8 C13.2375 8.1546875 13.2375 8.1546875 14.5 8.3125 C17.73458123 8.94786417 20.53191202 9.97189912 23.58984375 11.16796875 C30.54173399 13.56789196 37.63155708 15.23233829 45 15 C45.495 16.485 45.495 16.485 46 18 C44.35357453 17.88305763 42.70787398 17.75590767 41.0625 17.625 C40.14597656 17.55539063 39.22945312 17.48578125 38.28515625 17.4140625 C30.82909474 16.47429732 23.92468407 14.48173552 16.9375 11.75 C16.1532666 11.44425049 15.3690332 11.13850098 14.56103516 10.82348633 C8.99264083 8.57415268 4.42686307 6.13815461 0 2 C0 1.34 0 0.68 0 0 Z " fill="#141112" transform="translate(200,96)"/>
<path d="M0 0 C-1 3 -1 3 -2.92578125 4.09765625 C-3.71339844 4.41605469 -4.50101562 4.73445312 -5.3125 5.0625 C-8.72819235 6.46228017 -8.72819235 6.46228017 -12.03125 8.1015625 C-14.2333374 9.10648334 -15.7781138 9.23147639 -18.1875 9.3125 C-24.10011564 9.76323751 -29.50727194 11.51664777 -35.11010742 13.3605957 C-38.85354608 14.55182621 -41.24966444 15.18994049 -45 14 C-42.7039295 11.7039295 -41.40748762 11.390509 -38.30859375 10.5625 C-37.36306641 10.30726563 -36.41753906 10.05203125 -35.44335938 9.7890625 C-33.95545898 9.39847656 -33.95545898 9.39847656 -32.4375 9 C-31.47263672 8.73960937 -30.50777344 8.47921875 -29.51367188 8.2109375 C-25.06808827 7.02224668 -20.62709346 5.8990942 -16.125 4.9453125 C-12.77496985 4.22045437 -9.71828669 3.23829985 -6.5625 1.875 C-2.18978102 0 -2.18978102 0 0 0 Z " fill="#0F0D0E" transform="translate(302,141)"/>
<path d="M0 0 C0 4.30076923 -1.73103131 7.39719669 -4 11 C-6.75 13.5 -6.75 13.5 -9 15 C-9 14.34 -9 13.68 -9 13 C-9.66 13 -10.32 13 -11 13 C-11.33 13.99 -11.66 14.98 -12 16 C-14.984375 17.24609375 -14.984375 17.24609375 -18.75 18.4375 C-23.73642314 20.01792491 -26.96162538 21.73150615 -31 25 C-34.3125 24.75 -34.3125 24.75 -37 24 C-34.16563605 21.16563605 -30.67188801 20.18057008 -27 18.75 C-16.35268576 14.45514436 -8.17809561 10.19762098 -1 1 C-0.67 0.67 -0.34 0.34 0 0 Z " fill="#3A3839" transform="translate(193,107)"/>
<path d="M0 0 C1.65 0.33 3.3 0.66 5 1 C5.66 3.31 6.32 5.62 7 8 C7.66 8 8.32 8 9 8 C9 11.63 9 15.26 9 19 C7.02 19.99 7.02 19.99 5 21 C5.33 19.35 5.66 17.7 6 16 C4.68 16.33 3.36 16.66 2 17 C2.061875 16.071875 2.12375 15.14375 2.1875 14.1875 C2.30894264 11.01604897 2.30894264 11.01604897 0.5 9.125 C0.005 8.75375 -0.49 8.3825 -1 8 C-0.34 6.68 0.32 5.36 1 4 C1.33 4.33 1.66 4.66 2 5 C2 4.01 2 3.02 2 2 C1.34 2 0.68 2 0 2 C0 1.34 0 0.68 0 0 Z " fill="#434243" transform="translate(318,235)"/>
<path d="M0 0 C1.32 0 2.64 0 4 0 C4 0.66 4 1.32 4 2 C4.804375 1.979375 5.60875 1.95875 6.4375 1.9375 C9 2 9 2 10 3 C11.47267428 3.34255603 12.95730355 3.63412082 14.4453125 3.90234375 C15.81429687 4.15467773 15.81429687 4.15467773 17.2109375 4.41210938 C18.65339844 4.67217773 18.65339844 4.67217773 20.125 4.9375 C26.18552735 6.03222438 32.11151825 7.18125841 38 9 C37.67 9.66 37.34 10.32 37 11 C29.59787509 11.60425509 22.99664326 9.63365268 15.95458984 7.56884766 C14.03378703 7.0098331 12.10478274 6.47925082 10.17578125 5.94921875 C9.00402344 5.61535156 7.83226562 5.28148437 6.625 4.9375 C5.56539062 4.63714844 4.50578125 4.33679688 3.4140625 4.02734375 C2.61742187 3.68832031 1.82078125 3.34929687 1 3 C0.67 2.01 0.34 1.02 0 0 Z " fill="#100E0F" transform="translate(211,146)"/>
<path d="M0 0 C0.33 0 0.66 0 1 0 C1 10.23 1 20.46 1 31 C0.34 31.33 -0.32 31.66 -1 32 C-2.83292414 25.59233959 -3.04559253 20.58723293 -2 14 C-2.99 14 -3.98 14 -5 14 C-5 10.7 -5 7.4 -5 4 C-3.68 3.67 -2.36 3.34 -1 3 C-0.67 2.01 -0.34 1.02 0 0 Z " fill="#262425" transform="translate(253,270)"/>
<path d="M0 0 C0.66 0.33 1.32 0.66 2 1 C1.43410156 1.64066406 0.86820313 2.28132813 0.28515625 2.94140625 C-5.47160432 9.62827223 -5.47160432 9.62827223 -7 18 C-7.66 17.67 -8.32 17.34 -9 17 C-9.33 18.65 -9.66 20.3 -10 22 C-12 20 -12 20 -12.5 16.375 C-12.36424067 11.04159756 -9.63356825 7.69903795 -6 4 C-4.05264354 2.43860608 -2.1764963 1.24371217 0 0 Z " fill="#363435" transform="translate(208,70)"/>
<path d="M0 0 C1.65 0 3.3 0 5 0 C4.96519531 1.15628906 4.96519531 1.15628906 4.9296875 2.3359375 C4.91164062 3.33882813 4.89359375 4.34171875 4.875 5.375 C4.85179687 6.37273437 4.82859375 7.37046875 4.8046875 8.3984375 C4.72783152 11.16262173 4.72783152 11.16262173 7 13 C6.625 15.125 6.625 15.125 6 17 C4.1875 17.625 4.1875 17.625 2 18 C1.01 17.34 0.02 16.68 -1 16 C-0.88512252 14.41590006 -0.75765492 12.83271037 -0.625 11.25 C-0.55539063 10.36828125 -0.48578125 9.4865625 -0.4140625 8.578125 C-0.00149945 6.00933618 0.71160957 4.24158985 2 2 C1.34 2 0.68 2 0 2 C0 1.34 0 0.68 0 0 Z " fill="#464541" transform="translate(249,110)"/>
<path d="M0 0 C0.33 0 0.66 0 1 0 C1 2.31 1 4.62 1 7 C1.66 7 2.32 7 3 7 C4.02196992 7.97753644 5.01979625 8.9805881 6 10 C8.8684413 12.10232344 8.8684413 12.10232344 12 13 C11.01 13.66 10.02 14.32 9 15 C9 15.66 9 16.32 9 17 C11.31 17.99 13.62 18.98 16 20 C16 20.33 16 20.66 16 21 C14.02 21 12.04 21 10 21 C10 20.34 10 19.68 10 19 C9.443125 18.95875 8.88625 18.9175 8.3125 18.875 C4.32969523 17.36799279 1.87007644 13.74015288 0 10 C-0.06996014 8.29297265 -0.08440154 6.58331997 -0.0625 4.875 C-0.05347656 3.96492187 -0.04445313 3.05484375 -0.03515625 2.1171875 C-0.02355469 1.41851562 -0.01195312 0.71984375 0 0 Z " fill="#656364" transform="translate(298,246)"/>
<path d="M0 0 C0.66 0 1.32 0 2 0 C4.85689594 4.28534391 4.34655647 7.96398073 3.5 12.9375 C3.335 13.618125 3.17 14.29875 3 15 C1.02 15 -0.96 15 -3 15 C-2.22095672 4.44191344 -2.22095672 4.44191344 0 0 Z " fill="#716F70" transform="translate(292,238)"/>
<path d="M0 0 C-1.051875 0.433125 -2.10375 0.86625 -3.1875 1.3125 C-5.52787326 2.29940439 -7.42271285 3.27837188 -9.5625 4.6875 C-12.57107973 6.30750447 -14.61730876 6 -18 6 C-21.23439312 7.36839709 -23.51694098 8.51694098 -26 11 C-28.3828125 11.1953125 -28.3828125 11.1953125 -31.125 11.125 C-32.49011719 11.09792969 -32.49011719 11.09792969 -33.8828125 11.0703125 C-34.58148438 11.04710937 -35.28015625 11.02390625 -36 11 C-33.51472929 9.34315286 -31.64964422 8.38980163 -28.90234375 7.37890625 C-28.10513916 7.08435547 -27.30793457 6.78980469 -26.48657227 6.48632812 C-25.64537842 6.18146484 -24.80418457 5.87660156 -23.9375 5.5625 C-22.6534729 5.09553711 -22.6534729 5.09553711 -21.34350586 4.61914062 C-4.51654949 -1.45499581 -4.51654949 -1.45499581 0 0 Z " fill="#616060" transform="translate(156,132)"/>
<path d="M0 0 C1.65 0 3.3 0 5 0 C4.6875 1.9375 4.6875 1.9375 4 4 C3.01 4.33 2.02 4.66 1 5 C1.66 5.66 2.32 6.32 3 7 C2.01 9.31 1.02 11.62 0 14 C-0.66 13.67 -1.32 13.34 -2 13 C-2.33 14.65 -2.66 16.3 -3 18 C-3.33 18 -3.66 18 -4 18 C-3.98839844 17.24074219 -3.97679687 16.48148438 -3.96484375 15.69921875 C-3.95582031 14.70535156 -3.94679688 13.71148437 -3.9375 12.6875 C-3.92009766 11.20830078 -3.92009766 11.20830078 -3.90234375 9.69921875 C-3.87670138 6.90036151 -3.87670138 6.90036151 -5 4 C-4.67 3.01 -4.34 2.02 -4 1 C-3.34 1.99 -2.68 2.98 -2 4 C-1.34 2.68 -0.68 1.36 0 0 Z " fill="#353334" transform="translate(306,236)"/>
<path d="M0 0 C0.33 0 0.66 0 1 0 C1 3.63 1 7.26 1 11 C1.33 8.03 1.66 5.06 2 2 C2.33 2 2.66 2 3 2 C3.02715383 3.74991334 3.04646551 5.49994945 3.0625 7.25 C3.07410156 8.22453125 3.08570313 9.1990625 3.09765625 10.203125 C3.01195577 12.65758678 2.70706066 14.66168914 2 17 C-1.33333333 17.66666667 -4.66666667 18.33333333 -8 19 C-7.34 17.68 -6.68 16.36 -6 15 C-5.34 15 -4.68 15 -4 15 C-4.33 13.68 -4.66 12.36 -5 11 C-4.34 10.67 -3.68 10.34 -3 10 C-0.70366176 6.55549263 -0.45983515 4.06187717 0 0 Z " fill="#292829" transform="translate(327,245)"/>
<path d="M0 0 C0.99 0 1.98 0 3 0 C4.31435445 7.16920609 4.31435445 7.16920609 3.125 10.3125 C-0.17534338 12.93336092 -3.97750588 13.88685697 -8 15 C-7.6875 12.625 -7.6875 12.625 -7 10 C-6.01 9.34 -5.02 8.68 -4 8 C-3.67 8.66 -3.34 9.32 -3 10 C-2.34 7.69 -1.68 5.38 -1 3 C-0.01 3 0.98 3 2 3 C2 2.34 2 1.68 2 1 C1.34 0.67 0.68 0.34 0 0 Z " fill="#252324" transform="translate(314,234)"/>
<path d="M0 0 C3.96 0 7.92 0 12 0 C12 0.99 12 1.98 12 3 C11.01 3 10.02 3 9 3 C9.66 3.33 10.32 3.66 11 4 C11 4.99 11 5.98 11 7 C7.7 7 4.4 7 1 7 C0.67 4.69 0.34 2.38 0 0 Z " fill="#848484" transform="translate(309,271)"/>
<path d="M0 0 C1.28132813 0.10183594 2.56265625 0.20367187 3.8828125 0.30859375 C4.87023437 0.39238281 5.85765625 0.47617188 6.875 0.5625 C6.545 1.8825 6.215 3.2025 5.875 4.5625 C5.545 3.5725 5.215 2.5825 4.875 1.5625 C4.05092651 1.74425781 4.05092651 1.74425781 3.21020508 1.9296875 C0.70378018 2.47933049 -1.80430826 3.02097939 -4.3125 3.5625 C-5.60897461 3.84867187 -5.60897461 3.84867187 -6.93164062 4.140625 C-7.77275391 4.32109375 -8.61386719 4.5015625 -9.48046875 4.6875 C-10.25028076 4.85507813 -11.02009277 5.02265625 -11.81323242 5.1953125 C-14.28560247 5.58800915 -16.62575809 5.62435285 -19.125 5.5625 C-18.625 3.625 -18.625 3.625 -17.125 1.5625 C-15.06970473 1.05738506 -13.1106252 0.87407515 -11 0.73828125 C-1.66868932 -0.13652913 -1.66868932 -0.13652913 0 0 Z " fill="#1D1C1C" transform="translate(228.125,67.4375)"/>
<path d="M0 0 C-0.3125 1.9375 -0.3125 1.9375 -1 4 C-1.99 4.33 -2.98 4.66 -4 5 C-4.33 7.31 -4.66 9.62 -5 12 C-5.66 11.67 -6.32 11.34 -7 11 C-7 10.34 -7 9.68 -7 9 C-8.32 8.67 -9.64 8.34 -11 8 C-10.0409375 7.5978125 -10.0409375 7.5978125 -9.0625 7.1875 C-6.66868314 6.11332248 -6.66868314 6.11332248 -6 3 C-8.44480079 3.18828772 -8.44480079 3.18828772 -11 4 C-12.36020151 5.96758273 -12.36020151 5.96758273 -13 8 C-13.33 8 -13.66 8 -14 8 C-14 6.35 -14 4.7 -14 3 C-5.50875796 -1.33996815 -5.50875796 -1.33996815 0 0 Z " fill="#6A6969" transform="translate(317,233)"/>
<path d="M0 0 C0.66 0.33 1.32 0.66 2 1 C3 4 3 4 3 5 C5.03820524 8.01026881 5.03820524 8.01026881 8 10 C6.02 10.99 6.02 10.99 4 12 C4 12.99 4 13.98 4 15 C3.01 15.33 2.02 15.66 1 16 C1 15.01 1 14.02 1 13 C0.34 13 -0.32 13 -1 13 C-1.22245393 11.39773045 -1.42746669 9.79303233 -1.625 8.1875 C-1.74101562 7.29417969 -1.85703125 6.40085938 -1.9765625 5.48046875 C-2 3 -2 3 0 0 Z " fill="#6A6869" transform="translate(300,240)"/>
<path d="M0 0 C1.27230469 0.28617187 1.27230469 0.28617187 2.5703125 0.578125 C3.90642578 0.87783203 3.90642578 0.87783203 5.26953125 1.18359375 C7.84685328 1.86838946 10.22640443 2.82721632 12.6953125 3.828125 C13.8915625 3.93125 15.0878125 4.034375 16.3203125 4.140625 C19.6953125 4.828125 19.6953125 4.828125 21.6328125 7.390625 C21.9834375 8.195 22.3340625 8.999375 22.6953125 9.828125 C17.8203125 7.953125 17.8203125 7.953125 16.6953125 6.828125 C14.16934991 6.59158977 11.66424043 6.40638808 9.1328125 6.265625 C8.06643555 6.20084961 8.06643555 6.20084961 6.97851562 6.13476562 C5.21769338 6.02840723 3.4565293 5.92773654 1.6953125 5.828125 C1.3653125 4.838125 1.0353125 3.848125 0.6953125 2.828125 C-2.2746875 2.333125 -2.2746875 2.333125 -5.3046875 1.828125 C-2.3046875 -0.171875 -2.3046875 -0.171875 0 0 Z " fill="#1B1A1A" transform="translate(279.3046875,66.171875)"/>
<path d="M0 0 C0.66 0 1.32 0 2 0 C2.33 1.65 2.66 3.3 3 5 C2.01 5 1.02 5 0 5 C-0.33 5.99 -0.66 6.98 -1 8 C-1.66 8 -2.32 8 -3 8 C-3 8.66 -3 9.32 -3 10 C-3.99 10 -4.98 10 -6 10 C-6 9.34 -6 8.68 -6 8 C-6.99 8.33 -7.98 8.66 -9 9 C-7.79618552 6.50638429 -6.54571278 4.31856917 -5 2 C-3.35 2.33 -1.7 2.66 0 3 C0 2.01 0 1.02 0 0 Z " fill="#848384" transform="translate(304,227)"/>
<path d="M0 0 C-0.66 0 -1.32 0 -2 0 C-1.67 1.65 -1.34 3.3 -1 5 C0.32 4.67 1.64 4.34 3 4 C3 4.66 3 5.32 3 6 C1.35 6 -0.3 6 -2 6 C-2.33 5.34 -2.66 4.68 -3 4 C-3.33 4.66 -3.66 5.32 -4 6 C-5.98 6 -7.96 6 -10 6 C-10.33 4.35 -10.66 2.7 -11 1 C-3.57142857 -1.42857143 -3.57142857 -1.42857143 0 0 Z " fill="#383637" transform="translate(318,225)"/>
<path d="M0 0 C10.42033181 0.17420008 18.42507375 2.05652734 28 6 C28 6.33 28 6.66 28 7 C23.1371256 6.61405759 18.94654056 6.09817966 14.375 4.375 C10.12902638 2.83033122 7.37110436 2.97697558 3 4 C2.01 2.68 1.02 1.36 0 0 Z " fill="#2E2D2D" transform="translate(270,64)"/>
<path d="M0 0 C-5.27368962 3.51579308 -9.57894396 4.10463881 -15.7421875 3.9375 C-19.0812027 4.02992949 -21.8489257 4.92729385 -25 6 C-25 5.34 -25 4.68 -25 4 C-16.74818065 0.4853362 -8.90211806 -0.19352431 0 0 Z " fill="#505050" transform="translate(239,64)"/>
<path d="M0 0 C0.66 0.33 1.32 0.66 2 1 C-0.25910322 4.38865483 -1.17147014 4.68123566 -4.875 6 C-7.65585251 6.99612627 -9.77670741 7.82655686 -12.1171875 9.64453125 C-14 11 -14 11 -17.25 10.6875 C-18.1575 10.460625 -19.065 10.23375 -20 10 C-17.96810071 7.96810071 -16.74001881 7.34967032 -14.12109375 6.30859375 C-13.36505859 6.00373047 -12.60902344 5.69886719 -11.83007812 5.38476562 C-11.04052734 5.07216797 -10.25097656 4.75957031 -9.4375 4.4375 C-7.87281551 3.8134057 -6.30896593 3.18721271 -4.74609375 2.55859375 C-4.05185303 2.28329834 -3.3576123 2.00800293 -2.64233398 1.72436523 C-0.99588324 1.11642324 -0.99588324 1.11642324 0 0 Z " fill="#5B5A5B" transform="translate(176,121)"/>
<path d="M0 0 C0.99 0.33 1.98 0.66 3 1 C3 3 3 3 1.5 4.625 C1.005 5.07875 0.51 5.5325 0 6 C1.98 5.67 3.96 5.34 6 5 C6.33 4.01 6.66 3.02 7 2 C6.67 3.65 6.34 5.3 6 7 C5.34 7 4.68 7 4 7 C4 7.66 4 8.32 4 9 C1.04335481 10.4783226 -1.74229737 10.06032783 -5 10 C-4.34 9.67 -3.68 9.34 -3 9 C-2.09274566 6.88672575 -2.09274566 6.88672575 -1.375 4.4375 C-1.11460937 3.61121094 -0.85421875 2.78492188 -0.5859375 1.93359375 C-0.39257812 1.29550781 -0.19921875 0.65742188 0 0 Z " fill="#616060" transform="translate(320,257)"/>
<path d="M0 0 C0.33 0.66 0.66 1.32 1 2 C1.99 2.33 2.98 2.66 4 3 C3.67 4.98 3.34 6.96 3 9 C4.32 8.67 5.64 8.34 7 8 C6.67 9.65 6.34 11.3 6 13 C5.01 13.33 4.02 13.66 3 14 C2.29866401 12.42274653 1.614417 10.83788667 0.9375 9.25 C0.55464844 8.36828125 0.17179687 7.4865625 -0.22265625 6.578125 C-1.04600008 3.84743691 -0.9773992 2.63098653 0 0 Z " fill="#211F20" transform="translate(317,243)"/>
<path d="M0 0 C0.66 0.33 1.32 0.66 2 1 C1.7834375 2.37671875 1.7834375 2.37671875 1.5625 3.78125 C0.58361714 10.25275333 -0.26184366 16.45390849 0 23 C-0.66 23.33 -1.32 23.66 -2 24 C-2.09909001 16.25996896 -2.1692368 8.66499677 -1 1 C-0.67 0.67 -0.34 0.34 0 0 Z " fill="#4A4948" transform="translate(61,300)"/>
<path d="M0 0 C2 2 2 2 2.265625 4.2421875 C2.26046875 5.11101562 2.2553125 5.97984375 2.25 6.875 C2.25515625 7.73867187 2.2603125 8.60234375 2.265625 9.4921875 C1.98890649 12.10473577 1.3185995 13.7500088 0 16 C-0.33 14.68 -0.66 13.36 -1 12 C-1.66 12.66 -2.32 13.32 -3 14 C-2.88617347 12.04098546 -2.75858875 10.0827662 -2.625 8.125 C-2.55539062 7.03445312 -2.48578125 5.94390625 -2.4140625 4.8203125 C-2 2 -2 2 0 0 Z " fill="#7A7A7A" transform="translate(330,244)"/>
<path d="M0 0 C0.99 0 1.98 0 3 0 C3 0.66 3 1.32 3 2 C3.99 2 4.98 2 6 2 C6.66 4.64 7.32 7.28 8 10 C7.67 10 7.34 10 7 10 C6.67 12.64 6.34 15.28 6 18 C5.67 18 5.34 18 5 18 C4.97421875 17.34773438 4.9484375 16.69546875 4.921875 16.0234375 C4.53428803 10.05107458 3.65605129 6.71748554 0 2 C0 1.34 0 0.68 0 0 Z " fill="#303030" transform="translate(327,235)"/>
<path d="M0 0 C0.33 0 0.66 0 1 0 C1.33 7.26 1.66 14.52 2 22 C1.34 22.33 0.68 22.66 0 23 C-2.5078402 14.91918156 -1.52434239 8.24317463 0 0 Z " fill="#302F2E" transform="translate(252,279)"/>
<path d="M0 0 C1.65 0 3.3 0 5 0 C4.67 3.96 4.34 7.92 4 12 C2.68 12 1.36 12 0 12 C-0.17942163 8.05272412 -0.09350689 5.4019487 2 2 C1.34 2 0.68 2 0 2 C0 1.34 0 0.68 0 0 Z " fill="#4A4945" transform="translate(249,110)"/>
<path d="M0 0 C0.33 0 0.66 0 1 0 C1 5.61 1 11.22 1 17 C-0.32 17.33 -1.64 17.66 -3 18 C-3 15.36 -3 12.72 -3 10 C-2.34 9.67 -1.68 9.34 -1 9 C-0.53348793 6.87423218 -0.53348793 6.87423218 -0.375 4.4375 C-0.30023438 3.61121094 -0.22546875 2.78492188 -0.1484375 1.93359375 C-0.09945312 1.29550781 -0.05046875 0.65742188 0 0 Z " fill="#272725" transform="translate(251,239)"/>
<path d="M0 0 C3.95680442 2.08831345 6.58783295 4.19619811 9 8 C8.875 10.25 8.875 10.25 8 12 C7.01 12.495 7.01 12.495 6 13 C5.73445313 12.39671875 5.46890625 11.7934375 5.1953125 11.171875 C4.84210938 10.37265625 4.48890625 9.5734375 4.125 8.75 C3.77695312 7.96109375 3.42890625 7.1721875 3.0703125 6.359375 C2.09586095 4.21131392 1.07013571 2.10170798 0 0 Z " fill="#3A3A3A" transform="translate(299,71)"/>
<path d="M0 0 C0.12375 0.53625 0.2475 1.0725 0.375 1.625 C1.12206016 4.4638286 2.05303364 7.22223202 3 10 C2.01 10.66 1.02 11.32 0 12 C-0.66 11.67 -1.32 11.34 -2 11 C-1.67 10.01 -1.34 9.02 -1 8 C-1 7.34 -1 6.68 -1 6 C-2.65 6.33 -4.3 6.66 -6 7 C-5.34 5.68 -4.68 4.36 -4 3 C-3.01 3 -2.02 3 -1 3 C-0.67 2.01 -0.34 1.02 0 0 Z " fill="#4C4A4B" transform="translate(316,243)"/>
<path d="M0 0 C2.5 2.3125 2.5 2.3125 5 5 C5 5.99 5 6.98 5 8 C4.34 8 3.68 8 3 8 C3 8.99 3 9.98 3 11 C2.01 10.67 1.02 10.34 0 10 C0 6.7 0 3.4 0 0 Z " fill="#343332" transform="translate(312,104)"/>
<path d="M0 0 C0.33 0 0.66 0 1 0 C1.02715383 1.74991334 1.04646551 3.49994945 1.0625 5.25 C1.07410156 6.22453125 1.08570313 7.1990625 1.09765625 8.203125 C1.01195577 10.65758678 0.70706066 12.66168914 0 15 C-1.32 15 -2.64 15 -4 15 C-4.33 13.35 -4.66 11.7 -5 10 C-3.68 9.67 -2.36 9.34 -1 9 C-0.67 6.03 -0.34 3.06 0 0 Z " fill="#3D3C3D" transform="translate(329,247)"/>
<path d="M0 0 C1 3 1 3 1 6 C0.67 6.66 0.34 7.32 0 8 C-0.99 8 -1.98 8 -3 8 C-5.67398476 9.93897879 -5.67398476 9.93897879 -8 12 C-6.49087042 7.01987239 -3.44338151 3.75740058 0 0 Z " fill="#434242" transform="translate(93,160)"/>
<path d="M0 0 C0 0.66 0 1.32 0 2 C-1.32 2 -2.64 2 -4 2 C-4 2.66 -4 3.32 -4 4 C-5.609375 5.32421875 -5.609375 5.32421875 -7.75 6.6875 C-8.44609375 7.14511719 -9.1421875 7.60273438 -9.859375 8.07421875 C-12.39090725 9.16906025 -13.46100862 8.9435441 -16 8 C-3.54150198 0 -3.54150198 0 0 0 Z " fill="#585657" transform="translate(120,143)"/>
<path d="M0 0 C5.28 0 10.56 0 16 0 C15.67 0.99 15.34 1.98 15 3 C12.03 2.505 12.03 2.505 9 2 C8.67 2.99 8.34 3.98 8 5 C7.67 3.68 7.34 2.36 7 1 C4.69 1 2.38 1 0 1 C0 0.67 0 0.34 0 0 Z " fill="#151314" transform="translate(69,595)"/>
<path d="M0 0 C1.32 0 2.64 0 4 0 C3.814375 0.5775 3.62875 1.155 3.4375 1.75 C2.95976454 4.20692525 3.24270636 5.64397534 4 8 C2.35 8 0.7 8 -1 8 C-0.67 5.36 -0.34 2.72 0 0 Z " fill="#B4B2B3" transform="translate(290,244)"/>
<path d="M0 0 C-2.63743301 2.63743301 -4.81908961 2.86055002 -8.4375 3.6875 C-10.16806641 4.09548828 -10.16806641 4.09548828 -11.93359375 4.51171875 C-15 5 -15 5 -18 4 C-13.95712175 2.17674118 -10.38904255 0.75240729 -6 0 C-3.50907189 -1.24546405 -2.58919267 -0.7767578 0 0 Z " fill="#1A1819" transform="translate(287,106)"/>
<path d="M0 0 C0.33 0 0.66 0 1 0 C1.433125 1.3303125 1.433125 1.3303125 1.875 2.6875 C2.92339235 5.91479079 2.92339235 5.91479079 4.125 8.625 C5 11 5 11 5 15 C4.34 15 3.68 15 3 15 C2.29911844 13.25531628 1.61475991 11.50398839 0.9375 9.75 C0.55464844 8.77546875 0.17179687 7.8009375 -0.22265625 6.796875 C-1.01113787 3.95992605 -1.02437812 2.70590448 0 0 Z " fill="#141213" transform="translate(98,173)"/>
<path d="M0 0 C4.43379675 2.21689838 6.46636932 4.77728219 9 9 C7.68 9.33 6.36 9.66 5 10 C4.38125 9.05125 3.7625 8.1025 3.125 7.125 C1.18029031 4.05554891 1.18029031 4.05554891 -1 2 C-0.67 1.34 -0.34 0.68 0 0 Z " fill="#434142" transform="translate(408,153)"/>
<path d="M0 0 C-1.051875 0.433125 -2.10375 0.86625 -3.1875 1.3125 C-5.60729624 2.32725326 -7.48588785 3.3276918 -9.6875 4.8125 C-10.8321875 5.4003125 -10.8321875 5.4003125 -12 6 C-14.14453125 5.07421875 -14.14453125 5.07421875 -16 4 C-14.08959948 3.1319092 -12.17139263 2.28098217 -10.25 1.4375 C-9.18265625 0.96183594 -8.1153125 0.48617187 -7.015625 -0.00390625 C-4.01630163 -0.9946154 -2.86578759 -1.16161779 0 0 Z " fill="#4D4D4D" transform="translate(156,132)"/>
<path d="M0 0 C3.24961394 5.84930509 3.12793379 11.4753767 3 18 C2.67 18 2.34 18 2 18 C-1.256917 3.77075099 -1.256917 3.77075099 0 0 Z " fill="#5A5957" transform="translate(430,197)"/>
<path d="M0 0 C0.99 0.33 1.98 0.66 3 1 C0.37575342 2.74949772 -1.55727216 3.65389981 -4.5 4.625 C-5.2734375 4.88539062 -6.046875 5.14578125 -6.84375 5.4140625 C-9 6 -9 6 -12 6 C-11.5 4.0625 -11.5 4.0625 -10 2 C-7.94470473 1.49488506 -5.9856252 1.31157515 -3.875 1.17578125 C-1.90968315 1.10558103 -1.90968315 1.10558103 0 0 Z " fill="#2D2C2D" transform="translate(221,67)"/>
<path d="M0 0 C0.99 0.33 1.98 0.66 3 1 C3.33 1.99 3.66 2.98 4 4 C1.64561267 5.42944945 0.51967567 6.08661261 -2.25 5.625 C-2.8275 5.41875 -3.405 5.2125 -4 5 C-2.25 1.125 -2.25 1.125 0 0 Z " fill="#222021" transform="translate(313,248)"/>
<path d="M0 0 C0.33 1.98 0.66 3.96 1 6 C-0.65 6 -2.3 6 -4 6 C-4.33 4.35 -4.66 2.7 -5 1 C-2 0 -2 0 0 0 Z " fill="#B1AFB0" transform="translate(312,225)"/>
<path d="M0 0 C4.455 0.99 4.455 0.99 9 2 C8.34 3.32 7.68 4.64 7 6 C6.34 6 5.68 6 5 6 C5 5.34 5 4.68 5 4 C3.68 4.33 2.36 4.66 1 5 C0.67 3.35 0.34 1.7 0 0 Z " fill="#C7C6C6" transform="translate(316,225)"/>
<path d="M0 0 C0.33 0 0.66 0 1 0 C1 2.31 1 4.62 1 7 C1.66 7 2.32 7 3 7 C4.6875 8.25 4.6875 8.25 6 10 C5.6875 12.1875 5.6875 12.1875 5 14 C2.5 12.625 2.5 12.625 0 10 C-0.44908891 6.62919149 -0.29036649 3.38115651 0 0 Z " fill="#908E8F" transform="translate(298,246)"/>
<path d="M0 0 C0.66 0 1.32 0 2 0 C2.66 4.62 3.32 9.24 4 14 C3.34 13.67 2.68 13.34 2 13 C2 12.34 2 11.68 2 11 C1.34 11 0.68 11 0 11 C0 7.37 0 3.74 0 0 Z " fill="#404040" transform="translate(308,90)"/>
<path d="M0 0 C2.25056722 0.11433363 4.50046674 0.24186436 6.75 0.375 C8.62945312 0.47941406 8.62945312 0.47941406 10.546875 0.5859375 C13.60998121 0.95323304 15.41974266 1.39711286 18 3 C17.25234375 2.98839844 16.5046875 2.97679688 15.734375 2.96484375 C14.74953125 2.95582031 13.7646875 2.94679688 12.75 2.9375 C11.77546875 2.92589844 10.8009375 2.91429688 9.796875 2.90234375 C7.34241322 2.98804423 5.33831086 3.29293934 3 4 C2.01 2.68 1.02 1.36 0 0 Z " fill="#545454" transform="translate(270,64)"/>
<path d="M0 0 C0.66 0.33 1.32 0.66 2 1 C1.67 4.63 1.34 8.26 1 12 C-1.8086289 9.1913711 -1.72711179 6.88865706 -2 3 C-1.34 2.01 -0.68 1.02 0 0 Z " fill="#504E4F" transform="translate(300,240)"/>
<path d="M0 0 C0.99 0 1.98 0 3 0 C3.33 2.31 3.66 4.62 4 7 C2.02 7 0.04 7 -2 7 C-1.67 5.68 -1.34 4.36 -1 3 C-0.01 3 0.98 3 2 3 C2 2.34 2 1.68 2 1 C1.34 0.67 0.68 0.34 0 0 Z " fill="#2B292A" transform="translate(314,234)"/>
<path d="M0 0 C0.66 0 1.32 0 2 0 C2.33 1.65 2.66 3.3 3 5 C2.01 5 1.02 5 0 5 C0 5.66 0 6.32 0 7 C-0.99 6.67 -1.98 6.34 -3 6 C-3.33 5.01 -3.66 4.02 -4 3 C-2.68 3 -1.36 3 0 3 C0 2.01 0 1.02 0 0 Z " fill="#B4B2B3" transform="translate(304,227)"/>
<path d="M0 0 C1.73684533 3.47369066 2.30084112 5.07619937 2.625 8.75 C2.69976562 9.54921875 2.77453125 10.3484375 2.8515625 11.171875 C2.90054687 11.77515625 2.94953125 12.3784375 3 13 C2.01 13 1.02 13 0 13 C0 8.71 0 4.42 0 0 Z " fill="#CDCBCC" transform="translate(383,482)"/>
<path d="M0 0 C1.13643966 3.40931897 0.86747764 4.00335456 -0.4375 7.1875 C-0.72496094 7.90292969 -1.01242187 8.61835938 -1.30859375 9.35546875 C-1.53675781 9.89816406 -1.76492188 10.44085938 -2 11 C-2.99 10.67 -3.98 10.34 -5 10 C-3.84414715 6.08788267 -2.64465038 3.1254959 0 0 Z " fill="#131112" transform="translate(415,181)"/>
<path d="M0 0 C0.66 0.33 1.32 0.66 2 1 C0.6875 3 0.6875 3 -1 5 C-1.99 5 -2.98 5 -4 5 C-4.33 5.99 -4.66 6.98 -5 8 C-5.99 7.67 -6.98 7.34 -8 7 C-5.36 4.69 -2.72 2.38 0 0 Z " fill="#494748" transform="translate(102,152)"/>
<path d="M0 0 C5.4185766 -0.22577402 9.77487721 0.53329887 15 2 C15 2.33 15 2.66 15 3 C9.5610835 3.21755666 5.12919186 3.10428384 0 1 C0 0.67 0 0.34 0 0 Z " fill="#4C4B4C" transform="translate(53,632)"/>
<path d="M0 0 C0.99 0 1.98 0 3 0 C3 0.66 3 1.32 3 2 C4.32 2.66 5.64 3.32 7 4 C5.02 4.33 3.04 4.66 1 5 C0.67 3.35 0.34 1.7 0 0 Z " fill="#626262" transform="translate(309,271)"/>
<path d="M0 0 C3.3 1.65 6.6 3.3 10 5 C10 5.33 10 5.66 10 6 C8.02 6 6.04 6 4 6 C4 5.34 4 4.68 4 4 C2.68 3.67 1.36 3.34 0 3 C0 2.01 0 1.02 0 0 Z " fill="#7A7A7A" transform="translate(304,261)"/>
<path d="M0 0 C2.475 0.495 2.475 0.495 5 1 C4.67 2.98 4.34 4.96 4 7 C3.01 7 2.02 7 1 7 C1 6.34 1 5.68 1 5 C1.66 5 2.32 5 3 5 C3 4.01 3 3.02 3 2 C2.01 2 1.02 2 0 2 C0 1.34 0 0.68 0 0 Z " fill="#C4C4C4" transform="translate(336,246)"/>
<path d="M0 0 C0.33 0.99 0.66 1.98 1 3 C1.66 3 2.32 3 3 3 C2.125 7.75 2.125 7.75 1 10 C0.34 10 -0.32 10 -1 10 C-0.67 6.7 -0.34 3.4 0 0 Z " fill="#40403E" transform="translate(67,245)"/>
<path d="M0 0 C1.9375 0.6875 1.9375 0.6875 4 2 C4.75 4.625 4.75 4.625 5 7 C4.01 7 3.02 7 2 7 C0.5393715 4.35261084 0 3.10551666 0 0 Z " fill="#5F5F5F" transform="translate(327,239)"/>
<path d="M0 0 C1.60597325 0.45196245 3.20972508 0.91182327 4.8125 1.375 C6.15248047 1.75785156 6.15248047 1.75785156 7.51953125 2.1484375 C10 3 10 3 13 5 C7.36529617 5.5497272 4.61012242 3.95047835 0 1 C0 0.67 0 0.34 0 0 Z " fill="#545454" transform="translate(352,130)"/>
<path d="M0 0 C0.66 0.33 1.32 0.66 2 1 C0.35 2.98 -1.3 4.96 -3 7 C-3.33 6.34 -3.66 5.68 -4 5 C-4.66 4.67 -5.32 4.34 -6 4 C-4.02 2.68 -2.04 1.36 0 0 Z " fill="#424141" transform="translate(208,70)"/>
<path d="M0 0 C0.66 0 1.32 0 2 0 C1.71848913 1.31471568 1.42446661 2.62675767 1.125 3.9375 C0.96257812 4.66839844 0.80015625 5.39929688 0.6328125 6.15234375 C0 8 0 8 -2 9 C-2.25 3.375 -2.25 3.375 0 0 Z " fill="#232222" transform="translate(250,287)"/>
<path d="M0 0 C0.99 0 1.98 0 3 0 C3.66 1.32 4.32 2.64 5 4 C2.36 4 -0.28 4 -3 4 C-2.67 3.34 -2.34 2.68 -2 2 C-1.34 2 -0.68 2 0 2 C0 1.34 0 0.68 0 0 Z " fill="#222021" transform="translate(314,255)"/>
<path d="M0 0 C0.33 0.99 0.66 1.98 1 3 C1.66 3 2.32 3 3 3 C3.33 3.99 3.66 4.98 4 6 C3.01 6.495 3.01 6.495 2 7 C1.01 6.67 0.02 6.34 -1 6 C-1.6875 3.9375 -1.6875 3.9375 -2 2 C-1.34 2 -0.68 2 0 2 C0 1.34 0 0.68 0 0 Z " fill="#2E2D2E" transform="translate(338,240)"/>
<path d="M0 0 C-1.625 2.0625 -1.625 2.0625 -4 4 C-7.25 3.75 -7.25 3.75 -10 3 C-6.88378718 -0.11621282 -4.21175599 -0.11383124 0 0 Z " fill="#474546" transform="translate(166,128)"/>
<path d="M0 0 C0.66 1.32 1.32 2.64 2 4 C0.35 5.98 -1.3 7.96 -3 10 C-3.66 9.67 -4.32 9.34 -5 9 C-4.319375 8.1646875 -4.319375 8.1646875 -3.625 7.3125 C-1.96266232 4.94686561 -0.97855457 2.70984342 0 0 Z " fill="#292828" transform="translate(195,104)"/>
<path d="M0 0 C0 0.99 0 1.98 0 3 C-0.99 3.33 -1.98 3.66 -3 4 C-3 3.34 -3 2.68 -3 2 C-2.01 1.34 -1.02 0.68 0 0 Z M-5 4 C-4.34 4.33 -3.68 4.66 -3 5 C-3 5.66 -3 6.32 -3 7 C-3.99 7.33 -4.98 7.66 -6 8 C-6.66 7.67 -7.32 7.34 -8 7 C-8 6.34 -8 5.68 -8 5 C-7.01 4.67 -6.02 4.34 -5 4 Z " fill="#252525" transform="translate(327,262)"/>
<path d="M0 0 C0.66 0.66 1.32 1.32 2 2 C1.34 4.31 0.68 6.62 0 9 C-0.66 8.67 -1.32 8.34 -2 8 C-1.125 1.125 -1.125 1.125 0 0 Z " fill="#0F0D0E" transform="translate(403,212)"/>
<path d="M0 0 C0.33 0.66 0.66 1.32 1 2 C0.67 2.66 0.34 3.32 0 4 C0.99 4 1.98 4 3 4 C3 4.99 3 5.98 3 7 C2.01 7.33 1.02 7.66 0 8 C-1 7 -1 7 -1.125 4 C-1 1 -1 1 0 0 Z " fill="#797979" transform="translate(336,244)"/>
<path d="M0 0 C0 1.98 0 3.96 0 6 C-0.66 5.67 -1.32 5.34 -2 5 C-2 4.34 -2 3.68 -2 3 C-3.32 2.67 -4.64 2.34 -6 2 C-2.25 0 -2.25 0 0 0 Z " fill="#504E4F" transform="translate(312,239)"/>
<path d="M0 0 C1.65 0 3.3 0 5 0 C4.67 1.32 4.34 2.64 4 4 C2.68 3.67 1.36 3.34 0 3 C0 2.01 0 1.02 0 0 Z " fill="#282627" transform="translate(306,236)"/>
<path d="M0 0 C-0.66 1.32 -1.32 2.64 -2 4 C-2.99 3.67 -3.98 3.34 -5 3 C-5.99 3.495 -5.99 3.495 -7 4 C-7.66 3.34 -8.32 2.68 -9 2 C-3.375 0 -3.375 0 0 0 Z " fill="#313131" transform="translate(159,131)"/>
<path d="M0 0 C1.95418308 2.93127462 2.64700993 4.55834679 3 8 C2.34 8.66 1.68 9.32 1 10 C-0.60725635 6.78548731 -0.05748185 3.56387464 0 0 Z " fill="#515151" transform="translate(196,82)"/>
<path d="M0 0 C2.97 0.495 2.97 0.495 6 1 C5.67 1.99 5.34 2.98 5 4 C3.68 4 2.36 4 1 4 C0.67 2.68 0.34 1.36 0 0 Z " fill="#141313" transform="translate(52,592)"/>
<path d="M0 0 C1.67542976 0.28604898 3.34385343 0.61781233 5 1 C3.68 2.32 2.36 3.64 1 5 C0.34 3.68 -0.32 2.36 -1 1 C-0.67 0.67 -0.34 0.34 0 0 Z " fill="#1E1C1D" transform="translate(313,240)"/>
<path d="M0 0 C0.99 0.33 1.98 0.66 3 1 C1.515 4.96 1.515 4.96 0 9 C-0.95904856 5.16380575 -0.91892116 3.67568464 0 0 Z " fill="#5C5B5B" transform="translate(73,208)"/>
<path d="M0 0 C1.65 0 3.3 0 5 0 C4.34 2.64 3.68 5.28 3 8 C2.67 8 2.34 8 2 8 C2 6.02 2 4.04 2 2 C1.34 2 0.68 2 0 2 C0 1.34 0 0.68 0 0 Z " fill="#7A7976" transform="translate(249,110)"/>
</svg>
